<svg xmlns="http://www.w3.org/2000/svg" width="44" height="44" viewBox="0 0 44 44">
    <g fill="none" fill-rule="evenodd">
        <path stroke="#B7B5B5" stroke-linejoin="round" stroke-width="2" d="M43 17.405C43 8.81 36.418 1.76 28.02 1l-12.092.005C7.556 1.79 1 8.829 1 17.405c0 8.794 6.894 15.96 15.568 16.435l5.409 8.869 5.407-8.87C36.08 33.394 43 26.217 43 17.406z"/>
        <path fill="#B7B5B5" d="M22.056 19.257a2 2 0 1 1 0-4 2 2 0 0 1 0 4zM33.419 17.255a2.002 2.002 0 0 1-2 2.002 2 2 0 1 1 2-2.002M14.693 17.255a2.003 2.003 0 0 1-2.001 2.002 2 2 0 1 1 2.001-2.002"/>
    </g>
</svg>
